<?xml version="1.0" encoding="utf-8"?>
<!-- Generator: Adobe Illustrator 18.0.0, SVG Export Plug-In . SVG Version: 6.00 Build 0)  -->
<!DOCTYPE svg PUBLIC "-//W3C//DTD SVG 1.1//EN" "http://www.w3.org/Graphics/SVG/1.1/DTD/svg11.dtd">
<svg version="1.1" id="boxx-logo" xmlns="http://www.w3.org/2000/svg" xmlns:xlink="http://www.w3.org/1999/xlink" x="0px" y="0px"
	 width="130px" height="22.6px" viewBox="0 488.7 130 22.6" enable-background="new 0 488.7 130 22.6" xml:space="preserve">
<path d="M6.5,488.7L0,492.5v7.5l6.5-3.7V488.7 M6.5,503.7L0,507.5l6.5,3.7l6.5-3.7V500l-6.5-3.7V503.7z M42.3,496.3l-6.5,3.7v7.5
	l6.5,3.7l0,0l6.5-3.7l0,0V500L42.3,496.3z M58.5,500l-6.5-3.7v3.7l3.3,1.9v3.7l-3.3,1.9v3.7l6.5-3.7l0,0l6.5,3.7v-3.7l-3.3-1.9v-3.7
	L65,500l0,0l0,0l0,0l0,0v-3.7L58.5,500z M74.8,500l-6.5-3.7v3.7l3.3,1.9v3.7l-3.3,1.9v3.7l6.5-3.7l0,0l6.5,3.7v-3.7l-3.3-1.9v-3.7
	l3.3-1.9l0,0l0,0l0,0l0,0v-3.7L74.8,500z M91,505.6l-3.3-1.9l-3.3,1.9v3.7l3.3,1.9l3.3-1.9V505.6z M32.5,494.4l-9.7-5.6l-3.3,1.9
	v18.8l3.3,1.9l0,0l0,0l9.7-5.6v-3.8l-3.3-1.9l0,0l3.3-1.9C32.5,498.1,32.5,494.4,32.5,494.4z M102.4,499.1v11.3l1.6,0.9l0,0l1.6-0.9
	v-3.7l8.1,4.7l1.6-0.9v-11.3l-6.5-3.7L102.4,499.1z M118.6,499.1v9.4l0,0l4.9,2.8l0,0l6.5-3.7v-1.9l-4.9-2.8v-1.9l3.3-1.9v-1.9
	l-3.3-1.9L118.6,499.1z M125.1,500.9L125.1,500.9 M94.3,500v11.3l4.9-2.8v-9.4l-1.6-0.9L94.3,500z M95.9,491.6l-1.6,0.9v3.7l4.9-2.8
	L95.9,491.6z"/>
</svg>
