<?xml version="1.0" encoding="utf-8"?>
<!-- Generator: Adobe Illustrator 18.0.0, SVG Export Plug-In . SVG Version: 6.00 Build 0)  -->
<!DOCTYPE svg PUBLIC "-//W3C//DTD SVG 1.1//EN" "http://www.w3.org/Graphics/SVG/1.1/DTD/svg11.dtd">
<svg version="1.1" id="boxx-logo" xmlns="http://www.w3.org/2000/svg" xmlns:xlink="http://www.w3.org/1999/xlink" x="0px" y="0px"
	 width="130px" height="22.7px" viewBox="0 488.7 130 22.7" enable-background="new 0 488.7 130 22.7" xml:space="preserve">
<polyline fill="#DA4531" points="6.5,488.7 0,492.5 0,500 6.5,496.3 6.5,488.7 "/>
<polygon fill="#009A57" points="6.5,503.7 0,507.5 6.5,511.2 13,507.5 13,500 6.5,496.3 "/>
<polygon fill="#DA4531" points="42.3,496.3 35.8,500 35.8,507.5 42.3,511.2 42.3,511.2 48.8,507.5 48.8,507.5 48.8,500 "/>
<polygon fill="#FFB801" points="58.5,500 52,496.3 52,500 55.3,501.9 55.3,505.6 52,507.5 52,511.2 58.5,507.5 58.5,507.5 65,511.2 
	65,507.5 61.7,505.6 61.7,501.9 65,500 65,500 65,500 65,500 65,500 65,496.3 "/>
<polygon fill="#FFB801" points="74.8,500 68.3,496.3 68.3,500 71.6,501.9 71.6,505.6 68.3,507.5 68.3,511.2 74.8,507.5 74.8,507.5 
	81.3,511.2 81.3,507.5 78,505.6 78,501.9 81.3,500 81.3,500 81.3,500 81.3,500 81.3,500 81.3,496.3 "/>
<polygon fill="#DA4531" points="91,505.6 87.7,503.7 84.4,505.6 84.4,509.3 87.7,511.2 91,509.3 "/>
<path fill="#186DEE" d="M32.5,494.4l-9.7-5.6l-3.3,1.9v18.8l3.3,1.9l0,0l0,0l9.7-5.6V502l-3.3-1.9l0,0l3.3-1.9
	C32.5,498.1,32.5,494.4,32.5,494.4z"/>
<polygon fill="#009A57" points="102.4,499.1 102.4,510.4 104,511.3 104,511.3 105.6,510.4 105.6,506.7 113.7,511.4 115.3,510.5 
	115.3,499.2 108.8,495.5 "/>
<polygon fill="#DA4531" points="118.6,499.1 118.6,508.5 118.6,508.5 123.5,511.3 123.5,511.3 130,507.6 130,505.7 125.1,502.9 
	125.1,501 128.4,499.1 128.4,497.2 125.1,495.3 "/>
<line fill="#186DEE" x1="125.1" y1="500.9" x2="125.1" y2="500.9"/>
<polygon fill="#186DEE" points="94.3,500 94.3,511.3 99.2,508.5 99.2,499.1 97.6,498.2 "/>
<polygon fill="#186DEE" points="95.9,491.6 94.3,492.5 94.3,496.2 99.2,493.4 "/>
</svg>
